name C:/MyDriveSym/Projects/mobilecap/Data\Session20210910_0002\mocap\ForceDataProcessed\walking3_forces.mot
datacolumns 19
datarows 27
range 0.67950000 0.69250000
endheader 
time	R_ground_force_vx	R_ground_force_vy	R_ground_force_vz	R_ground_force_px	R_ground_force_py	R_ground_force_pz	R_ground_torque_x	R_ground_torque_y	R_ground_torque_z	L_ground_force_vx	L_ground_force_vy	L_ground_force_vz	L_ground_force_px	L_ground_force_py	L_ground_force_pz	L_ground_torque_x	L_ground_torque_y	L_ground_torque_z	
          0.67950000	         49.57012500	        138.01121900	          7.90387400	          0.28282200	          0.00600000	         -0.16643700	          0.00000000	         -1.06378500	          0.00000000	       -116.36642300	        833.48684000	         33.21402000	          0.80754200	          0.00600000	         -0.27962000	          0.00000000	          1.27059400	          0.00000000	
          0.68000000	         48.91750600	        135.66616600	          7.86853700	          0.28326900	          0.00600000	         -0.16649500	          0.00000000	         -1.05695500	          0.00000000	       -116.38957100	        835.22845000	         33.39573800	          0.80771900	          0.00600000	         -0.27962200	          0.00000000	          1.26920700	          0.00000000	
          0.68050000	         48.26875300	        133.34103100	          7.83263600	          0.28372400	          0.00600000	         -0.16655300	          0.00000000	         -1.05017600	          0.00000000	       -116.40944100	        836.95789300	         33.57576800	          0.80789500	          0.00600000	         -0.27962300	          0.00000000	          1.26780000	          0.00000000	
          0.68100000	         47.62389300	        131.03581500	          7.79618800	          0.28418700	          0.00600000	         -0.16661200	          0.00000000	         -1.04345100	          0.00000000	       -116.42605400	        838.67511700	         33.75410300	          0.80807200	          0.00600000	         -0.27962400	          0.00000000	          1.26637500	          0.00000000	
          0.68150000	         46.98295100	        128.75051500	          7.75920800	          0.28465800	          0.00600000	         -0.16667200	          0.00000000	         -1.03678100	          0.00000000	       -116.43943100	        840.38006600	         33.93073600	          0.80824900	          0.00600000	         -0.27962500	          0.00000000	          1.26493100	          0.00000000	
          0.68200000	         46.34595200	        126.48512800	          7.72171100	          0.28513800	          0.00600000	         -0.16673300	          0.00000000	         -1.03016800	          0.00000000	       -116.44959100	        842.07268800	         34.10565800	          0.80842600	          0.00600000	         -0.27962600	          0.00000000	          1.26347000	          0.00000000	
          0.68250000	         45.71292100	        124.23964800	          7.68371300	          0.28562700	          0.00600000	         -0.16679400	          0.00000000	         -1.02361500	          0.00000000	       -116.45655600	        843.75293000	         34.27886400	          0.80860300	          0.00600000	         -0.27962700	          0.00000000	          1.26199400	          0.00000000	
          0.68300000	         45.08387900	        122.01406400	          7.64522900	          0.28612600	          0.00600000	         -0.16685600	          0.00000000	         -1.01712300	          0.00000000	       -116.46034700	        845.42074000	         34.45034700	          0.80878000	          0.00600000	         -0.27962800	          0.00000000	          1.26050200	          0.00000000	
          0.68350000	         44.45885000	        119.80836500	          7.60627400	          0.28663400	          0.00600000	         -0.16691900	          0.00000000	         -1.01069500	          0.00000000	       -116.46098600	        847.07606600	         34.62009900	          0.80895700	          0.00600000	         -0.27962800	          0.00000000	          1.25899600	          0.00000000	
          0.68400000	         43.83785400	        117.62253800	          7.56686200	          0.28715300	          0.00600000	         -0.16698300	          0.00000000	         -1.00433400	          0.00000000	       -116.45849400	        848.71885500	         34.78811600	          0.80913400	          0.00600000	         -0.27962800	          0.00000000	          1.25747800	          0.00000000	
          0.68450000	         43.22091400	        115.45656600	          7.52700900	          0.28768100	          0.00600000	         -0.16704700	          0.00000000	         -0.99804100	          0.00000000	       -116.45289300	        850.34905800	         34.95439200	          0.80931100	          0.00600000	         -0.27962800	          0.00000000	          1.25594700	          0.00000000	
          0.68500000	         42.60804800	        113.31042900	          7.48672800	          0.28822100	          0.00600000	         -0.16711300	          0.00000000	         -0.99181900	          0.00000000	       -116.44420400	        851.96662400	         35.11892100	          0.80948800	          0.00600000	         -0.27962700	          0.00000000	          1.25440600	          0.00000000	
          0.68550000	         41.99927500	        111.18410700	          7.44603400	          0.28877200	          0.00600000	         -0.16717900	          0.00000000	         -0.98567000	          0.00000000	       -116.43245000	        853.57150300	         35.28169900	          0.80966500	          0.00600000	         -0.27962700	          0.00000000	          1.25285400	          0.00000000	
          0.68600000	         41.39461500	        109.07757600	          7.40494000	          0.28933500	          0.00600000	         -0.16724700	          0.00000000	         -0.97959700	          0.00000000	       -116.41765400	        855.16364500	         35.44272100	          0.80984300	          0.00600000	         -0.27962600	          0.00000000	          1.25129300	          0.00000000	
          0.68650000	         40.79408400	        106.99081100	          7.36346000	          0.28991000	          0.00600000	         -0.16731500	          0.00000000	         -0.97360300	          0.00000000	       -116.39983700	        856.74300200	         35.60198300	          0.81002000	          0.00600000	         -0.27962500	          0.00000000	          1.24972400	          0.00000000	
          0.68700000	         40.19770000	        104.92378200	          7.32160900	          0.29049700	          0.00600000	         -0.16738500	          0.00000000	         -0.96769000	          0.00000000	       -116.37902200	        858.30952500	         35.75948100	          0.81019800	          0.00600000	         -0.27962400	          0.00000000	          1.24814800	          0.00000000	
          0.68750000	         39.60547900	        102.87646100	          7.27940000	          0.29109800	          0.00600000	         -0.16745600	          0.00000000	         -0.96186100	          0.00000000	       -116.35523200	        859.86316700	         35.91521200	          0.81037500	          0.00600000	         -0.27962300	          0.00000000	          1.24656600	          0.00000000	
          0.68800000	         39.01743600	        100.84881500	          7.23684500	          0.29171300	          0.00600000	         -0.16752800	          0.00000000	         -0.95611900	          0.00000000	       -116.32848900	        861.40388100	         36.06917300	          0.81055300	          0.00600000	         -0.27962100	          0.00000000	          1.24497800	          0.00000000	
          0.68850000	         38.43358500	         98.84080800	          7.19395800	          0.29234200	          0.00600000	         -0.16760100	          0.00000000	         -0.95046700	          0.00000000	       -116.29881800	        862.93161900	         36.22136100	          0.81073100	          0.00600000	         -0.27962000	          0.00000000	          1.24338600	          0.00000000	
          0.68900000	         37.85394100	         96.85240400	          7.15075200	          0.29298500	          0.00600000	         -0.16767500	          0.00000000	         -0.94490900	          0.00000000	       -116.26624100	        864.44633600	         36.37177400	          0.81090900	          0.00600000	         -0.27961800	          0.00000000	          1.24179100	          0.00000000	
          0.68950000	         37.27851700	         94.88356300	          7.10724000	          0.29364500	          0.00600000	         -0.16775100	          0.00000000	         -0.93944700	          0.00000000	       -116.23078100	        865.94798800	         36.52041100	          0.81108700	          0.00600000	         -0.27961600	          0.00000000	          1.24019400	          0.00000000	
          0.69000000	         36.70732500	         92.93424600	          7.06343400	          0.29432000	          0.00600000	         -0.16782800	          0.00000000	         -0.93408500	          0.00000000	       -116.19246200	        867.43652800	         36.66727000	          0.81126600	          0.00600000	         -0.27961400	          0.00000000	          1.23859500	          0.00000000	
          0.69050000	         36.14037700	         91.00440800	          7.01934600	          0.29501300	          0.00600000	         -0.16790700	          0.00000000	         -0.92882800	          0.00000000	       -116.15130800	        868.91191400	         36.81235100	          0.81144400	          0.00600000	         -0.27961100	          0.00000000	          1.23699500	          0.00000000	
          0.69100000	         35.57768400	         89.09400400	          6.97498900	          0.29572300	          0.00600000	         -0.16798700	          0.00000000	         -0.92367700	          0.00000000	       -116.10734200	        870.37410200	         36.95565200	          0.81162300	          0.00600000	         -0.27960900	          0.00000000	          1.23539600	          0.00000000	
          0.69150000	         35.01925600	         87.20298700	          6.93037500	          0.29645100	          0.00600000	         -0.16806800	          0.00000000	         -0.91863800	          0.00000000	       -116.06058900	        871.82305000	         37.09717400	          0.81180200	          0.00600000	         -0.27960600	          0.00000000	          1.23379700	          0.00000000	
          0.69200000	         34.46510300	         85.33130800	          6.88551600	          0.29719900	          0.00600000	         -0.16815200	          0.00000000	         -0.91371500	          0.00000000	       -116.01107100	        873.25871600	         37.23691700	          0.81198100	          0.00600000	         -0.27960300	          0.00000000	          1.23220200	          0.00000000	
          0.69250000	         33.91523300	         83.47891600	          6.84042300	          0.29796700	          0.00600000	         -0.16823700	          0.00000000	         -0.90891200	          0.00000000	       -115.95881400	        874.68105900	         37.37488200	          0.81216000	          0.00600000	         -0.27960000	          0.00000000	          1.23060900	          0.00000000	
